<svg width="323" height="301" viewBox="0 0 323 301" fill="none" xmlns="http://www.w3.org/2000/svg">
<path d="M274.061 158.061C274.646 157.475 274.646 156.525 274.061 155.939L264.515 146.393C263.929 145.808 262.979 145.808 262.393 146.393C261.808 146.979 261.808 147.929 262.393 148.515L270.879 157L262.393 165.485C261.808 166.071 261.808 167.021 262.393 167.607C262.979 168.192 263.929 168.192 264.515 167.607L274.061 158.061ZM0 158.5H273V155.5H0V158.5Z" fill="#06B702"/>
<path d="M137.061 26.9393C136.475 26.3536 135.525 26.3536 134.939 26.9393L125.393 36.4853C124.808 37.0711 124.808 38.0208 125.393 38.6066C125.979 39.1924 126.929 39.1924 127.515 38.6066L136 30.1213L144.485 38.6066C145.071 39.1924 146.021 39.1924 146.607 38.6066C147.192 38.0208 147.192 37.0711 146.607 36.4853L137.061 26.9393ZM137.5 301L137.5 28H134.5L134.5 301H137.5Z" fill="#06B702"/>
<line x1="79.5" y1="169" x2="79.5" y2="146" stroke="black"/>
<line x1="125" y1="48.5" x2="148" y2="48.5" stroke="black"/>
<line x1="12.5" y1="169" x2="12.5" y2="146" stroke="black"/>
<line x1="255.5" y1="169" x2="255.5" y2="146" stroke="black"/>
<line x1="125" y1="213.5" x2="148" y2="213.5" stroke="black"/>
<line x1="188.5" y1="169" x2="188.5" y2="146" stroke="black"/>
<line x1="125" y1="273.5" x2="148" y2="273.5" stroke="black"/>
<line x1="125" y1="100.5" x2="148" y2="100.5" stroke="black"/>
<line x1="135.785" y1="213.548" x2="255.785" y2="156.548" stroke="black"/>
<path d="M136.5 210V157H252.5L136.5 210Z" fill="#D9D9D9" stroke="white" stroke-opacity="0.65"/>
<path d="M135.5 49C135.167 84.3333 134.7 155.2 135.5 156H188.5V49H135.5Z" fill="#D9D9D9" stroke="white" stroke-opacity="0.65"/>
<path d="M81 156H136V209H131C103.386 209 81 186.614 81 159V156Z" fill="#D9D9D9"/>
<path d="M137.409 3.36364H139.023L142.25 8.79545H142.386L145.614 3.36364H147.227L143.023 10.2045V15H141.614V10.2045L137.409 3.36364Z" fill="white"/>
<path d="M19.2273 126.557V127.807H14.1364V126.557H19.2273ZM21.7685 133V121.364H25.7003C26.6094 121.364 27.3556 121.519 27.9389 121.83C28.5223 122.136 28.9541 122.559 29.2344 123.097C29.5147 123.634 29.6548 124.246 29.6548 124.932C29.6548 125.617 29.5147 126.225 29.2344 126.756C28.9541 127.286 28.5241 127.703 27.9446 128.006C27.3651 128.305 26.6245 128.455 25.723 128.455H22.5412V127.182H25.6776C26.2988 127.182 26.7988 127.091 27.1776 126.909C27.5601 126.727 27.8366 126.47 28.0071 126.136C28.1813 125.799 28.2685 125.398 28.2685 124.932C28.2685 124.466 28.1813 124.059 28.0071 123.71C27.8329 123.362 27.5545 123.093 27.1719 122.903C26.7893 122.71 26.2836 122.614 25.6548 122.614H23.1776V133H21.7685ZM27.2457 127.773L30.1094 133H28.473L25.6548 127.773H27.2457Z" fill="white"/>
<path d="M109.409 50V38.3636H113.341C114.25 38.3636 114.996 38.5189 115.58 38.8295C116.163 39.1364 116.595 39.5587 116.875 40.0966C117.155 40.6345 117.295 41.2462 117.295 41.9318C117.295 42.6174 117.155 43.2254 116.875 43.7557C116.595 44.286 116.165 44.7027 115.585 45.0057C115.006 45.3049 114.265 45.4545 113.364 45.4545H110.182V44.1818H113.318C113.939 44.1818 114.439 44.0909 114.818 43.9091C115.201 43.7273 115.477 43.4697 115.648 43.1364C115.822 42.7992 115.909 42.3977 115.909 41.9318C115.909 41.4659 115.822 41.0587 115.648 40.7102C115.473 40.3617 115.195 40.0928 114.812 39.9034C114.43 39.7102 113.924 39.6136 113.295 39.6136H110.818V50H109.409ZM114.886 44.7727L117.75 50H116.114L113.295 44.7727H114.886Z" fill="white"/>
<path d="M71.2273 125.557V126.807H66.1364V125.557H71.2273ZM73.7685 132V120.364H77.7003C78.6094 120.364 79.3556 120.519 79.9389 120.83C80.5223 121.136 80.9541 121.559 81.2344 122.097C81.5147 122.634 81.6548 123.246 81.6548 123.932C81.6548 124.617 81.5147 125.225 81.2344 125.756C80.9541 126.286 80.5241 126.703 79.9446 127.006C79.3651 127.305 78.6245 127.455 77.723 127.455H74.5412V126.182H77.6776C78.2988 126.182 78.7988 126.091 79.1776 125.909C79.5601 125.727 79.8366 125.47 80.0071 125.136C80.1813 124.799 80.2685 124.398 80.2685 123.932C80.2685 123.466 80.1813 123.059 80.0071 122.71C79.8329 122.362 79.5545 122.093 79.1719 121.903C78.7893 121.71 78.2836 121.614 77.6548 121.614H75.1776V132H73.7685ZM79.2457 126.773L82.1094 132H80.473L77.6548 126.773H79.2457ZM87.9347 119.818L84.1847 133.75H82.9574L86.7074 119.818H87.9347ZM89.5014 132V130.977L93.3423 126.773C93.7931 126.28 94.1643 125.852 94.456 125.489C94.7476 125.121 94.9635 124.777 95.1037 124.455C95.2476 124.129 95.3196 123.788 95.3196 123.432C95.3196 123.023 95.2211 122.669 95.0241 122.369C94.831 122.07 94.5658 121.839 94.2287 121.676C93.8916 121.513 93.5128 121.432 93.0923 121.432C92.6454 121.432 92.2552 121.525 91.9219 121.71C91.5923 121.892 91.3366 122.148 91.1548 122.477C90.9768 122.807 90.8878 123.193 90.8878 123.636H89.5469C89.5469 122.955 89.7041 122.356 90.0185 121.841C90.3329 121.326 90.7609 120.924 91.3026 120.636C91.848 120.348 92.4598 120.205 93.1378 120.205C93.8196 120.205 94.4238 120.348 94.9503 120.636C95.4768 120.924 95.8897 121.312 96.1889 121.801C96.4882 122.29 96.6378 122.833 96.6378 123.432C96.6378 123.86 96.5601 124.278 96.4048 124.688C96.2533 125.093 95.9882 125.545 95.6094 126.045C95.2344 126.542 94.7135 127.148 94.0469 127.864L91.4332 130.659V130.75H96.8423V132H89.5014Z" fill="white"/>
<path d="M176.409 132V120.364H180.341C181.25 120.364 181.996 120.519 182.58 120.83C183.163 121.136 183.595 121.559 183.875 122.097C184.155 122.634 184.295 123.246 184.295 123.932C184.295 124.617 184.155 125.225 183.875 125.756C183.595 126.286 183.165 126.703 182.585 127.006C182.006 127.305 181.265 127.455 180.364 127.455H177.182V126.182H180.318C180.939 126.182 181.439 126.091 181.818 125.909C182.201 125.727 182.477 125.47 182.648 125.136C182.822 124.799 182.909 124.398 182.909 123.932C182.909 123.466 182.822 123.059 182.648 122.71C182.473 122.362 182.195 122.093 181.812 121.903C181.43 121.71 180.924 121.614 180.295 121.614H177.818V132H176.409ZM181.886 126.773L184.75 132H183.114L180.295 126.773H181.886ZM190.575 119.818L186.825 133.75H185.598L189.348 119.818H190.575ZM192.142 132V130.977L195.983 126.773C196.434 126.28 196.805 125.852 197.097 125.489C197.388 125.121 197.604 124.777 197.744 124.455C197.888 124.129 197.96 123.788 197.96 123.432C197.96 123.023 197.862 122.669 197.665 122.369C197.472 122.07 197.206 121.839 196.869 121.676C196.532 121.513 196.153 121.432 195.733 121.432C195.286 121.432 194.896 121.525 194.562 121.71C194.233 121.892 193.977 122.148 193.795 122.477C193.617 122.807 193.528 123.193 193.528 123.636H192.188C192.188 122.955 192.345 122.356 192.659 121.841C192.973 121.326 193.402 120.924 193.943 120.636C194.489 120.348 195.1 120.205 195.778 120.205C196.46 120.205 197.064 120.348 197.591 120.636C198.117 120.924 198.53 121.312 198.83 121.801C199.129 122.29 199.278 122.833 199.278 123.432C199.278 123.86 199.201 124.278 199.045 124.688C198.894 125.093 198.629 125.545 198.25 126.045C197.875 126.542 197.354 127.148 196.688 127.864L194.074 130.659V130.75H199.483V132H192.142Z" fill="white"/>
<path d="M100.409 89V77.3636H104.341C105.25 77.3636 105.996 77.5189 106.58 77.8295C107.163 78.1364 107.595 78.5587 107.875 79.0966C108.155 79.6345 108.295 80.2462 108.295 80.9318C108.295 81.6174 108.155 82.2254 107.875 82.7557C107.595 83.286 107.165 83.7027 106.585 84.0057C106.006 84.3049 105.265 84.4545 104.364 84.4545H101.182V83.1818H104.318C104.939 83.1818 105.439 83.0909 105.818 82.9091C106.201 82.7273 106.477 82.4697 106.648 82.1364C106.822 81.7992 106.909 81.3977 106.909 80.9318C106.909 80.4659 106.822 80.0587 106.648 79.7102C106.473 79.3617 106.195 79.0928 105.812 78.9034C105.43 78.7102 104.924 78.6136 104.295 78.6136H101.818V89H100.409ZM105.886 83.7727L108.75 89H107.114L104.295 83.7727H105.886ZM114.575 76.8182L110.825 90.75H109.598L113.348 76.8182H114.575ZM116.142 89V87.9773L119.983 83.7727C120.434 83.2803 120.805 82.8523 121.097 82.4886C121.388 82.1212 121.604 81.7765 121.744 81.4545C121.888 81.1288 121.96 80.7879 121.96 80.4318C121.96 80.0227 121.862 79.6686 121.665 79.3693C121.472 79.0701 121.206 78.839 120.869 78.6761C120.532 78.5133 120.153 78.4318 119.733 78.4318C119.286 78.4318 118.896 78.5246 118.562 78.7102C118.233 78.892 117.977 79.1477 117.795 79.4773C117.617 79.8068 117.528 80.1932 117.528 80.6364H116.188C116.188 79.9545 116.345 79.3561 116.659 78.8409C116.973 78.3258 117.402 77.9242 117.943 77.6364C118.489 77.3485 119.1 77.2045 119.778 77.2045C120.46 77.2045 121.064 77.3485 121.591 77.6364C122.117 77.9242 122.53 78.3125 122.83 78.8011C123.129 79.2898 123.278 79.8333 123.278 80.4318C123.278 80.8598 123.201 81.2784 123.045 81.6875C122.894 82.0928 122.629 82.5455 122.25 83.0455C121.875 83.5417 121.354 84.1477 120.688 84.8636L118.074 87.6591V87.75H123.483V89H116.142Z" fill="white"/>
<path d="M151.227 207.557V208.807H146.136V207.557H151.227ZM153.768 214V202.364H157.7C158.609 202.364 159.356 202.519 159.939 202.83C160.522 203.136 160.954 203.559 161.234 204.097C161.515 204.634 161.655 205.246 161.655 205.932C161.655 206.617 161.515 207.225 161.234 207.756C160.954 208.286 160.524 208.703 159.945 209.006C159.365 209.305 158.625 209.455 157.723 209.455H154.541V208.182H157.678C158.299 208.182 158.799 208.091 159.178 207.909C159.56 207.727 159.837 207.47 160.007 207.136C160.181 206.799 160.268 206.398 160.268 205.932C160.268 205.466 160.181 205.059 160.007 204.71C159.833 204.362 159.554 204.093 159.172 203.903C158.789 203.71 158.284 203.614 157.655 203.614H155.178V214H153.768ZM159.246 208.773L162.109 214H160.473L157.655 208.773H159.246ZM167.935 201.818L164.185 215.75H162.957L166.707 201.818H167.935ZM169.501 214V212.977L173.342 208.773C173.793 208.28 174.164 207.852 174.456 207.489C174.748 207.121 174.964 206.777 175.104 206.455C175.248 206.129 175.32 205.788 175.32 205.432C175.32 205.023 175.221 204.669 175.024 204.369C174.831 204.07 174.566 203.839 174.229 203.676C173.892 203.513 173.513 203.432 173.092 203.432C172.645 203.432 172.255 203.525 171.922 203.71C171.592 203.892 171.337 204.148 171.155 204.477C170.977 204.807 170.888 205.193 170.888 205.636H169.547C169.547 204.955 169.704 204.356 170.018 203.841C170.333 203.326 170.761 202.924 171.303 202.636C171.848 202.348 172.46 202.205 173.138 202.205C173.82 202.205 174.424 202.348 174.95 202.636C175.477 202.924 175.89 203.312 176.189 203.801C176.488 204.29 176.638 204.833 176.638 205.432C176.638 205.86 176.56 206.278 176.405 206.688C176.253 207.093 175.988 207.545 175.609 208.045C175.234 208.542 174.714 209.148 174.047 209.864L171.433 212.659V212.75H176.842V214H169.501Z" fill="white"/>
<path d="M246.409 134V122.364H250.341C251.25 122.364 251.996 122.519 252.58 122.83C253.163 123.136 253.595 123.559 253.875 124.097C254.155 124.634 254.295 125.246 254.295 125.932C254.295 126.617 254.155 127.225 253.875 127.756C253.595 128.286 253.165 128.703 252.585 129.006C252.006 129.305 251.265 129.455 250.364 129.455H247.182V128.182H250.318C250.939 128.182 251.439 128.091 251.818 127.909C252.201 127.727 252.477 127.47 252.648 127.136C252.822 126.799 252.909 126.398 252.909 125.932C252.909 125.466 252.822 125.059 252.648 124.71C252.473 124.362 252.195 124.093 251.812 123.903C251.43 123.71 250.924 123.614 250.295 123.614H247.818V134H246.409ZM251.886 128.773L254.75 134H253.114L250.295 128.773H251.886Z" fill="white"/>
<path d="M154.227 268.557V269.807H149.136V268.557H154.227ZM156.768 275V263.364H160.7C161.609 263.364 162.356 263.519 162.939 263.83C163.522 264.136 163.954 264.559 164.234 265.097C164.515 265.634 164.655 266.246 164.655 266.932C164.655 267.617 164.515 268.225 164.234 268.756C163.954 269.286 163.524 269.703 162.945 270.006C162.365 270.305 161.625 270.455 160.723 270.455H157.541V269.182H160.678C161.299 269.182 161.799 269.091 162.178 268.909C162.56 268.727 162.837 268.47 163.007 268.136C163.181 267.799 163.268 267.398 163.268 266.932C163.268 266.466 163.181 266.059 163.007 265.71C162.833 265.362 162.554 265.093 162.172 264.903C161.789 264.71 161.284 264.614 160.655 264.614H158.178V275H156.768ZM162.246 269.773L165.109 275H163.473L160.655 269.773H162.246Z" fill="white"/>
<path d="M282.091 132.364L285.091 137.205H285.182L288.182 132.364H289.841L286.182 138.182L289.841 144H288.182L285.182 139.25H285.091L282.091 144H280.432L284.182 138.182L280.432 132.364H282.091Z" fill="white"/>
</svg>
